General
Unique ID                                : 271362201216411499002620290756961749342 (0xCC26757B1C093722D9B0FD25EDD1C95E)
Complete name                            : HIGH and MIGHTY COLOR - Ichirin no Hana [NTSC DVD 480i PCM 2.0 MPEG-2 REMUX-SEKAI].mkv
Format                                   : Matroska
Format version                           : Version 4
File size                                : 225 MiB
Duration                                 : 3 min 47 s
Overall bit rate mode                    : Variable
Overall bit rate                         : 8 294 kb/s
Frame rate                               : 29.970 FPS
Title                                    : HIGH and MIGHTY COLOR - Ichirin no Hana [NTSC DVD 480i PCM 2.0 MPEG-2 REMUX-SEKAI]
Encoded date                             : 2026-03-06 04:26:09 UTC
Writing application                      : mkvmerge v97.0 ('You Don't Have A Clue') 64-bit
Writing library                          : libebml v1.4.5 + libmatroska v1.7.1
Website                                  : https://sekai-archivist.blogspot.com/

Video
ID                                       : 1
ID in the original source medium         : 224 (0xE0)
Format                                   : MPEG Video
Format version                           : Version 2
Format profile                           : Main@Main
Format settings                          : CustomMatrix / BVOP
Format settings, BVOP                    : Yes
Format settings, Matrix                  : Custom
Format settings, GOP                     : M=3, N=15
Format settings, picture structure       : Frame
Codec ID                                 : V_MPEG2
Codec ID/Info                            : MPEG 1 or 2 Video
Duration                                 : 3 min 47 s
Bit rate mode                            : Variable
Bit rate                                 : 6 756 kb/s
Maximum bit rate                         : 8 264 kb/s
Width                                    : 720 pixels
Height                                   : 480 pixels
Display aspect ratio                     : 4:3
Frame rate mode                          : Constant
Frame rate                               : 29.970 (30000/1001) FPS
Standard                                 : NTSC
Color space                              : YUV
Chroma subsampling                       : 4:2:0
Bit depth                                : 8 bits
Scan type                                : Interlaced
Scan order                               : Top Field First
Compression mode                         : Lossy
Bits/(Pixel*Frame)                       : 0.652
Time code of first frame                 : 01:21:54:10
Time code source                         : Group of pictures header
GOP, Open/Closed                         : Closed
Stream size                              : 183 MiB (81%)
Language                                 : Japanese
Default                                  : Yes
Forced                                   : No
Original source medium                   : DVD-Video

Audio
ID                                       : 2
ID in the original source medium         : 189 (0xBD)160 (0xA0)
Format                                   : PCM
Format settings                          : Little / Signed
Codec ID                                 : A_PCM/INT/LIT
Duration                                 : 3 min 47 s
Bit rate mode                            : Constant
Bit rate                                 : 1 536 kb/s
Channel(s)                               : 2 channels
Sampling rate                            : 48.0 kHz
Frame rate                               : 25.000 FPS (1920 SPF)
Bit depth                                : 16 bits
Delay relative to video                  : 32 ms
Stream size                              : 41.7 MiB (19%)
Language                                 : Japanese
Default                                  : Yes
Forced                                   : No
Original source medium                   : DVD-Video


